<svg id="图层_1" data-name="图层 1" xmlns="http://www.w3.org/2000/svg" viewBox="0 0 184 125"><title>custom3</title><path d="M28,18.42c-6.83,9.9-7.33,14.55-5.85,16.85,3.34,5.21,16.59-2.15,22.23,4.11,5.8,6.43-2.75,20.23,1.17,23.42,6.2,5,27.92-29,49.94-25.07,14.71,2.6,27.46,21.75,23.79,31.64-5.84,15.77-52,4.33-54.61,15.21C62.85,92.05,82.05,108.09,102.5,108c20.18-.09,42.26-15.91,44.86-38.21,2.62-22.58-16.24-38.68-17.17-39.45-8-6.63-16.73-8.92-54.22-10.69C56.45,18.73,40,18.47,28,18.42Z" style="stroke:#000;stroke-miterlimit:10"/><path d="M19,66.91c4.29-3.58,22.3,4,22.23,16.85,0,6.93-5.34,14.64-10.14,14.38C22.47,97.66,13.78,71.27,19,66.91Z" style="fill:#1a1a1a;stroke:#000;stroke-miterlimit:10"/><path d="M89.62,57.87C80.71,63.93,76.26,67,76.75,68.55c.62,2,7.68,2.43,13.27-.41,8.23-4.17,12.15-14.91,10.53-16.43C99.78,51,96.39,53.27,89.62,57.87Z" style="fill:#fff;stroke:#000;stroke-miterlimit:10"/><path d="M150.09,11.44c-1.36.47-.88,4.48,4.68,41.09,1.83,12.07,2.8,18.11,5.07,18.49,3.12.51,8-7.8,9-16,1-8-1.9-14.24-7-25.06C158.54,23.06,152.62,10.55,150.09,11.44Z" style="fill:#fff;stroke:#000;stroke-miterlimit:10"/></svg>